#!OML:ASF F:\VICON\USERDATA\INSTALL\Justin_Nancy\Justin_Nancy.ASF
:FULLY-SPECIFIED
:DEGREES
236
root 1.29391 17.1427 -18.7546 5.09251 0.341839 7.62754
lowerback 8.45662 -1.52907 -7.51457
upperback 0.936766 -2.73214 -0.108846
thorax -3.42167 -1.25512 4.41004
lowerneck -18.6219 -3.95426 -9.76792
upperneck 16.3947 -4.20572 7.28632
head 8.53992 -1.85212 3.53544
rclavicle 2.23633e-014 -3.97569e-016
rhumerus -35.3336 -14.2664 -77.9507
rradius 32.2245
rwrist 6.91717
rhand -14.7857 15.0077
rfingers 7.12502
rthumb 11.3714 -14.664
lclavicle 2.23633e-014 -3.97569e-016
lhumerus -18.4131 3.51104 82.1094
lradius 35.4051
lwrist -7.77241
lhand -17.3227 24.2887
lfingers 7.12502
lthumb 8.92393 54.08
rfemur -34.6462 2.93981 10.768
rtibia 14.2327
rfoot -3.64032 -8.65107
rtoes -7.13519
lfemur 5.04597 -0.735116 -30.8586
ltibia 18.5163
lfoot -19.504 -3.46862
ltoes -4.97626
237
root 1.27943 17.1381 -18.5812 5.03181 0.641733 7.57261
lowerback 8.57121 -1.62494 -7.46607
upperback 0.865811 -2.86536 -0.0393939
thorax -3.54157 -1.3146 4.47591
lowerneck -18.3964 -3.90593 -9.66932
upperneck 16.3814 -4.15774 7.13997
head 8.48577 -1.84254 3.47608
rclavicle -1.59028e-014 1.27222e-014
rhumerus -35.6548 -14.6987 -77.6309
rradius 32.007
rwrist 7.34529
rhand -14.8078 14.822
rfingers 7.12502
rthumb 11.3501 -14.8508
lclavicle -1.59028e-014 1.27222e-014
lhumerus -18.4119 3.27902 82.2298
lradius 35.6101
lwrist -7.5443
lhand -17.0626 25.5325
lfingers 7.12502
lthumb 9.17496 55.313
rfemur -34.124 2.8376 10.8444
rtibia 13.3782
rfoot -3.52816 -8.21938
rtoes -8.21712
lfemur 5.79631 -0.906818 -30.6557
ltibia 18.4065
lfoot -19.1577 -4.06273
ltoes -5.40833
238
root 1.26162 17.13 -18.4057 5.04332 0.814283 7.54402
lowerback 8.64648 -1.67876 -7.50696
upperback 0.746596 -2.94928 0.0463525
thorax -3.69124 -1.34562 4.6041
lowerneck -18.1455 -3.91209 -9.69054
upperneck 16.379 -4.1705 7.07003
head 8.44098 -1.86181 3.45516
rclavicle -1.16289e-014 5.56597e-015
rhumerus -36.0095 -15.0589 -77.2479
rradius 31.6371
rwrist 7.49522
rhand -15.0378 15.8764
rfingers 7.12502
rthumb 11.1283 -13.8085
lclavicle -1.16289e-014 5.56597e-015
lhumerus -18.3954 2.95919 82.3827
lradius 35.6049
lwrist -7.16082
lhand -14.3861 28.5548
lfingers 7.12502
lthumb 11.7568 58.2049
rfemur -33.9434 2.8227 10.9215
rtibia 13.1997
rfoot -3.59719 -7.8784
rtoes -9.13392
lfemur 6.37334 -1.3178 -30.5433
ltibia 18.3315
lfoot -18.5876 -4.41026
ltoes -5.88011
239
root 1.24398 17.1216 -18.215 4.97962 0.866159 7.45019
lowerback 8.53823 -1.75996 -7.55762
upperback 0.700666 -3.04878 0.195824
thorax -3.65472 -1.39374 4.79559
lowerneck -17.9088 -3.88037 -9.74284
upperneck 16.2557 -4.10599 6.95006
head 8.35058 -1.85045 3.43077
rclavicle -5.06901e-015 2.38542e-015
rhumerus -36.2206 -15.0595 -77.0015
rradius 31.0782
rwrist 7.18028
rhand -15.6176 16.966
rfingers 7.12502
rthumb 10.5691 -12.7483
lclavicle -5.06901e-015 2.38542e-015
lhumerus -18.5545 3.01187 82.4908
lradius 35.7368
lwrist -7.17395
lhand -14.436 28.1642
lfingers 7.12502
lthumb 11.7087 57.817
rfemur -33.8788 2.84205 11.1604
rtibia 13.6386
rfoot -3.71102 -7.49258
rtoes -9.32027
lfemur 7.01487 -1.62528 -30.367
ltibia 18.2943
lfoot -17.9363 -4.73444
ltoes -6.67512
240
root 1.22653 17.1167 -18.0234 4.84433 0.969169 7.4577
lowerback 8.42478 -1.80352 -7.5737
upperback 0.75329 -3.09508 0.220484
thorax -3.52739 -1.42333 4.82789
lowerneck -17.91 -3.84772 -9.71854
upperneck 16.364 -4.06039 6.89269
head 8.38136 -1.83402 3.41432
rclavicle 2.77305e-014 -2.66371e-014
rhumerus -36.4702 -15.372 -76.7136
rradius 30.5818
rwrist 7.19425
rhand -15.8056 18.0347
rfingers 7.12502
rthumb 10.3877 -11.6887
lclavicle 2.77305e-014 -2.66371e-014
lhumerus -18.6449 2.9579 82.5538
lradius 35.9907
lwrist -7.37221
lhand -16.5427 26.1235
lfingers 7.12502
lthumb 9.67659 55.8813
rfemur -33.7654 2.54714 11.4739
rtibia 14.4923
rfoot -3.3245 -6.93129
rtoes -9.10205
lfemur 7.75195 -1.8957 -30.3021
ltibia 18.2759
lfoot -17.2925 -4.98754
ltoes -8.88951
241
root 1.20861 17.1194 -17.8293 4.70994 1.20625 7.51373
lowerback 8.33907 -1.83617 -7.58694
upperback 0.858077 -3.12782 0.21219
thorax -3.36474 -1.44935 4.82229
lowerneck -18.0611 -3.89427 -9.66962
upperneck 16.4581 -4.11947 6.85742
head 8.44319 -1.86026 3.3866
rclavicle -2.00773e-014 -5.56597e-015
rhumerus -36.6826 -16.2798 -76.1944
rradius 30.0046
rwrist 7.89635
rhand -16.0807 19.2258
rfingers 7.12502
rthumb 10.1223 -10.5107
lclavicle -2.00773e-014 -5.56597e-015
lhumerus -18.5613 2.83976 82.6811
lradius 36.1289
lwrist -7.5391
lhand -16.589 25.7178
lfingers 7.12502
lthumb 9.63191 55.4776
rfemur -33.6225 1.92157 11.8699
rtibia 15.6399
rfoot -2.94482 -6.40837
rtoes -9.78973
lfemur 8.52823 -2.18909 -30.2228
ltibia 18.2976
lfoot -16.6697 -5.53144
ltoes -9.68442
